<svg width="24" height="20" viewBox="0 0 24 20" fill="none" xmlns="http://www.w3.org/2000/svg">
<path d="M7.19321 15.853L7.1812 15.8419L7.16968 15.8304L1.86974 10.5305L1.33941 10.0002L1.86974 9.46983L7.16967 4.16989C7.29018 4.04939 7.25553 3.91023 7.19321 3.85311L7.1812 3.84209L7.16967 3.83057C7.04917 3.71007 6.91001 3.74472 6.85289 3.80703L6.84187 3.81905L6.83035 3.83057L0.830424 9.8305C0.709919 9.951 0.74457 10.0902 0.806887 10.1473L0.8189 10.1583L0.830424 10.1698L6.83035 16.1697L6.85441 16.1938L6.87527 16.2188C6.87698 16.2203 6.88387 16.2257 6.89928 16.2321C6.92319 16.242 6.95837 16.2501 7.00001 16.2501C7.05476 16.2501 7.10086 16.2386 7.16968 16.1697L7.70001 16.7001L7.16968 16.1697C7.29018 16.0492 7.25553 15.9101 7.19321 15.853Z" fill="#39629C" stroke="#39629C" stroke-width="1.5"/>
<path d="M22.0003 1.25022L22.7503 1.25022L22.7503 2.00022L22.7503 18L22.7503 18.75L22.0003 18.75L14.5337 18.75C14.4465 18.75 14.3881 18.7813 14.3515 18.8179C14.3149 18.8544 14.2837 18.9129 14.2837 19C14.2837 19.0872 14.3149 19.1456 14.3515 19.1822C14.3881 19.2188 14.4465 19.25 14.5337 19.25L23.0002 19.25C23.0874 19.25 23.1458 19.2188 23.1824 19.1822C23.219 19.1456 23.2502 19.0872 23.2502 19L23.2502 1.00023C23.2502 0.913066 23.219 0.85465 23.1824 0.818067C23.1458 0.781482 23.0874 0.750239 23.0002 0.750239L14.5337 0.75024C14.4465 0.75024 14.3881 0.781483 14.3515 0.818067C14.3149 0.85465 14.2837 0.913067 14.2837 1.00023C14.2837 1.08739 14.3149 1.14581 14.3515 1.18239C14.3881 1.21897 14.4465 1.25022 14.5337 1.25022L22.0003 1.25022Z" fill="#39629C" stroke="#39629C" stroke-width="1.5"/>
<path d="M2.06721 10.25L13.9004 10.25C13.9876 10.25 14.046 10.2187 14.0826 10.1821C14.1191 10.1456 14.1504 10.0871 14.1504 9.99999C14.1504 9.91283 14.1191 9.85441 14.0826 9.81783C14.046 9.78124 13.9876 9.75 13.9004 9.75L2.06721 9.75C1.98005 9.75 1.92164 9.78125 1.88505 9.81783C1.84847 9.85441 1.81723 9.91283 1.81723 9.99999C1.81723 10.0872 1.84847 10.1456 1.88505 10.1822C1.92164 10.2187 1.98005 10.25 2.06721 10.25Z" fill="#39629C" stroke="#39629C" stroke-width="1.5"/>
</svg>
