<svg width="15" height="15" viewBox="0 0 15 15" fill="none" xmlns="http://www.w3.org/2000/svg">
<path d="M7.33333 14.6667C3.28651 14.6667 0 11.3802 0 7.33333C0 3.28651 3.28651 0 7.33333 0C11.3802 0 14.6667 3.28651 14.6667 7.33333C14.6667 11.3802 11.3802 14.6667 7.33333 14.6667ZM7.33333 1.47157C4.09588 1.47157 1.47157 4.09588 1.47157 7.33333C1.47157 10.5708 4.09588 13.1951 7.33333 13.1951C10.5708 13.1951 13.1951 10.5708 13.1951 7.33333C13.1951 4.09588 10.5708 1.47157 7.33333 1.47157Z" fill="#39629C"/>
<path d="M7.57822 13.9065C7.45559 13.9065 7.35748 13.882 7.23485 13.8329C4.80676 12.5575 3.28613 10.0804 3.28613 7.33346C3.28613 4.58653 4.80676 2.10938 7.23485 0.834021C7.60275 0.637811 8.04422 0.784968 8.2159 1.15286C8.41211 1.52075 8.26495 1.96223 7.89706 2.13391C5.98402 3.16401 4.78223 5.15063 4.78223 7.33346C4.78223 9.51629 5.98402 11.5029 7.92159 12.533C8.28948 12.7292 8.41211 13.1707 8.24043 13.5141C8.09327 13.7839 7.84801 13.9065 7.57822 13.9065Z" fill="#39629C"/>
<path d="M7.08827 13.9064C6.81848 13.9064 6.57322 13.7593 6.42606 13.514C6.22985 13.1461 6.37701 12.7046 6.7449 12.5329C8.68247 11.5274 9.88426 9.51622 9.88426 7.33339C9.88426 5.15055 8.68247 3.16393 6.7449 2.13383C6.37701 1.93762 6.25438 1.49615 6.42606 1.15278C6.62227 0.784891 7.06374 0.66226 7.40711 0.833944C9.8352 2.10931 11.3558 4.58645 11.3558 7.33339C11.3558 10.0803 9.8352 12.5575 7.40711 13.8328C7.33353 13.8819 7.2109 13.9064 7.08827 13.9064Z" fill="#39629C"/>
<path d="M13.9309 8.06898H0.735786C0.318841 8.06898 0 7.75014 0 7.3332C0 6.91625 0.318841 6.59741 0.735786 6.59741H13.9309C14.3478 6.59741 14.6667 6.91625 14.6667 7.3332C14.6667 7.75014 14.3478 8.06898 13.9309 8.06898Z" fill="#39629C"/>
</svg>
